<?xml version="1.0" standalone="no"?>
<svg viewBox="0 0 200 200" xmlns="http://www.w3.org/2000/svg">
  <mask id="mask0" mask-type="alpha">
    <path d="M66.4,-51.7C81.5,-34,86.2,-6.6,79.8,16.9C73.3,40.4,55.9,60,35.1,
    68.2C14.4,76.4,-9.6,73.1,-28.6,62.7C-47.6,52.3,-61.5,34.8,-68.2,13.3C-75,-8.2,-74.5,-33.6,
    -61.9,-50.8C-49.3,-67.9,-24.7,-76.9,0.5,-77.3C25.6,-77.7,51.3,-69.5,66.4,-51.7Z" transform="translate(100 100)" />
  </mask>
    <g mask="url(#mask0)">
      <path d="M66.4,-51.7C81.5,-34,86.2,-6.6,79.8,16.9C73.3,40.4,55.9,60,35.1,
      68.2C14.4,76.4,-9.6,73.1,-28.6,62.7C-47.6,52.3,-61.5,34.8,-68.2,13.3C-75,-8.2,-74.5,-33.6,
      -61.9,-50.8C-49.3,-67.9,-24.7,-76.9,0.5,-77.3C25.6,-77.7,51.3,-69.5,66.4,-51.7Z" transform="translate(100 100)" />
    </g>
</svg>
